<svg xmlns="http://www.w3.org/2000/svg" version="1.1" xmlns:xlink="http://www.w3.org/1999/xlink" xmlns:svgjs="http://svgjs.com/svgjs" width="1366" height="625" preserveAspectRatio="none" viewBox="0 0 1366 625"><g mask="url(&quot;#SvgjsMask1043&quot;)" fill="none"><rect width="1366" height="625" x="0" y="0" fill="rgba(253, 253, 253, 1)"></rect><path d="M-56.67945892035091-24.088945370302774L-27.347996725307574 161.10261849128554 157.84356713628074 131.7711562962422 128.5121049412374-53.42040756534611z" fill="rgba(1, 129, 255, 0.4)" class="triangle-float3"></path><path d="M105.97827963539996-40.92361797723728L-19.00268225914897-43.10516878189772 40.21547248113484 145.45704946225587z" fill="rgba(1, 129, 255, 0.4)" class="triangle-float2"></path><path d="M8.449187076908679 160.81233482075658L132.51745603207394 176.04600274640006 93.33382344295649-17.673234649169558z" fill="rgba(1, 129, 255, 0.4)" class="triangle-float1"></path><path d="M1210.686820397045 109.79067705620284L1425.0412207385668 117.48063795799278 1339.918002037402-49.583085327326216z" fill="rgba(1, 129, 255, 0.4)" class="triangle-float2"></path><path d="M1203.0321530920214-45.23857538766634L1196.4884974603026 142.1472046784141 1383.874277526383 148.69086031013305 1390.417933158102-38.6949197559474z" fill="rgba(1, 129, 255, 0.4)" class="triangle-float2"></path><path d="M1257.977497453248 202.60385665915783L1425.0412207385668 117.48063795799278 1339.918002037402-49.583085327326216 1172.8542787520828 35.54013337383884z" fill="rgba(1, 129, 255, 0.4)" class="triangle-float3"></path><path d="M-12.858915373285015 479.3865869470058L-67.65530872191971 591.7358427344017 128.2667716334915 617.7558048636558z" fill="rgba(1, 129, 255, 0.4)" class="triangle-float1"></path><path d="M86.376,692.973C124.011,691.043,157.008,670.654,176.723,638.538C197.512,604.672,207.571,562.29,187.738,527.855C167.877,493.372,126.1,479.309,86.376,481.676C50.618,483.806,23.421,508.719,3.977,538.803C-17.905,572.659,-40.583,613.152,-21.581,648.705C-1.932,685.469,44.745,695.107,86.376,692.973" fill="rgba(1, 129, 255, 0.4)" class="triangle-float3"></path><path d="M41.293,617.094C67.834,618.012,91.613,601.002,104.316,577.68C116.485,555.338,113.839,528.781,101.517,506.523C88.744,483.45,67.656,464.575,41.293,463.834C13.772,463.06,-12.598,478.432,-25.095,502.964C-36.67,525.687,-27.428,551.524,-14.606,573.567C-1.879,595.446,15.997,616.219,41.293,617.094" fill="rgba(1, 129, 255, 0.4)" class="triangle-float2"></path><path d="M1173.4295353452324 493.3403071624688L1228.2492299807454 672.647448905538 1352.7366770883016 438.5206125269557z" fill="rgba(1, 129, 255, 0.4)" class="triangle-float2"></path><path d="M1353.8843255516617 424.0702032523594L1183.9516154822898 503.31112732874055 1263.192539558671 673.2438373981124 1433.1252496280429 594.0029133217313z" fill="rgba(1, 129, 255, 0.4)" class="triangle-float1"></path><path d="M1425.6287686275218 644.8768945907416L1389.8520819944197 460.82179769430456 1241.5736717310847 680.6535812238437z" fill="rgba(1, 129, 255, 0.4)" class="triangle-float1"></path></g><defs><mask id="SvgjsMask1043"><rect width="1366" height="625" fill="#ffffff"></rect></mask><style>
            @keyframes float1 {
                0%{transform: translate(0, 0)}
                50%{transform: translate(-10px, 0)}
                100%{transform: translate(0, 0)}
            }

            .triangle-float1 {
                animation: float1 5s infinite;
            }

            @keyframes float2 {
                0%{transform: translate(0, 0)}
                50%{transform: translate(-5px, -5px)}
                100%{transform: translate(0, 0)}
            }

            .triangle-float2 {
                animation: float2 4s infinite;
            }

            @keyframes float3 {
                0%{transform: translate(0, 0)}
                50%{transform: translate(0, -10px)}
                100%{transform: translate(0, 0)}
            }

            .triangle-float3 {
                animation: float3 6s infinite;
            }
        </style></defs></svg>